<svg xmlns="http://www.w3.org/2000/svg" fill="none" viewBox="0 0 97 20">
  <path fill="#fff" d="M96.49 2.05h-6.72v15.24h-2.32V2.05h-6.72v-2h15.76v2zM52.81 7.01v-5h15.76v2h-6.72v3h6.72v2h-6.72v5.92h-2.32V9.01h-6.72v-2h6.72zM29.53 2.05H22.8v15.24h-2.32V2.05H13.7v-2h15.84l-.01 2z"/>
  <path fill="#fff" d="M29.53 2.05H22.8v15.24h-2.32V2.05H13.7v-2h15.84l-.01 2z"/>
  <path fill="#fff" d="M83.21 7.01v-5h15.76v2h-6.72v3h6.72v2h-6.72v5.92h-2.32V9.01h-6.72v-2h6.72zM52.81 7.01v-5h15.76v2h-6.72v3h6.72v2h-6.72v5.92h-2.32V9.01h-6.72v-2h6.72z"/>
  <path fill="#fff" d="M96.49 2.05h-6.72v15.24h-2.32V2.05h-6.72v-2h15.76v2z"/>
  <path fill="#fff" d="M52.81 7.01v-5h15.76v2h-6.72v3h6.72v2h-6.72v5.92h-2.32V9.01h-6.72v-2h6.72z"/>
</svg>
